<svg xmlns="http://www.w3.org/2000/svg" viewBox="0 0 120 120" role="img" aria-labelledby="title desc">
  <title id="title">TapeScore Concept 2 clean knockout symbol</title>
  <desc id="desc">Capital S isolated cleanly inside an irregular auction profile with a visible LVN.</desc>
  <defs>
    <mask id="clear-s" maskUnits="userSpaceOnUse" x="0" y="0" width="120" height="120">
      <rect width="120" height="120" fill="white"/>
      <text x="60" y="101" text-anchor="middle" fill="black" stroke="black" stroke-width="8" stroke-linejoin="round" paint-order="stroke fill" font-family="Inter, Geist, 'Helvetica Neue', Arial, sans-serif" font-size="96" font-weight="800" letter-spacing="-4">S</text>
    </mask>
  </defs>
  <g mask="url(#clear-s)" shape-rendering="geometricPrecision">
    <rect x="39" y="5" width="47" height="6" rx="1.5" fill="#4A4D50"/>
    <rect x="27" y="13" width="73" height="6" rx="1.5" fill="#6B6B6B"/>
    <rect x="14" y="21" width="96" height="7" rx="1.5" fill="#A6A6A6"/>
    <rect x="7" y="30" width="108" height="7" rx="1.5" fill="#6B6B6B"/>
    <rect x="18" y="39" width="82" height="6" rx="1.5" fill="#A6A6A6"/>
    <rect x="34" y="47" width="56" height="6" rx="1.5" fill="#4A4D50"/>
    <rect x="49" y="55" width="27" height="5" rx="1.5" fill="#6B6B6B"/>
    <rect x="44" y="63" width="38" height="5" rx="1.5" fill="#A6A6A6"/>
    <rect x="31" y="71" width="64" height="6" rx="1.5" fill="#4A4D50"/>
    <rect x="17" y="79" width="92" height="6" rx="1.5" fill="#6B6B6B"/>
    <rect x="5" y="87" width="110" height="7" rx="1.5" fill="#A6A6A6"/>
    <rect x="12" y="96" width="101" height="7" rx="1.5" fill="#6B6B6B"/>
    <rect x="24" y="105" width="76" height="6" rx="1.5" fill="#4A4D50"/>
    <g fill="#E0A33C"><rect x="93" y="21" width="17" height="7" rx="1.5"/><rect x="59" y="30" width="56" height="7" rx="1.5"/><rect x="94" y="79" width="15" height="6" rx="1.5"/><rect x="57" y="87" width="58" height="7" rx="1.5"/></g>
  </g>
  <text x="60" y="101" text-anchor="middle" fill="#E7E8E5" font-family="Inter, Geist, 'Helvetica Neue', Arial, sans-serif" font-size="96" font-weight="800" letter-spacing="-4">S</text>
</svg>
